<svg width="23" height="25" viewBox="0 0 23 25" fill="none" xmlns="http://www.w3.org/2000/svg">
<path d="M1 1H3.33333L3.8 3.33333L1 1ZM5.66667 12.6667H17.3333L22 3.33333H3.8L5.66667 12.6667ZM5.66667 12.6667L3.8 3.33333L5.66667 12.6667ZM5.66667 12.6667L2.9915 15.3418C2.2565 16.0768 2.77683 17.3333 3.81633 17.3333H17.3333L5.66667 12.6667ZM17.3333 17.3333C16.7145 17.3333 16.121 17.5792 15.6834 18.0168C15.2458 18.4543 15 19.0478 15 19.6667C15 20.2855 15.2458 20.879 15.6834 21.3166C16.121 21.7542 16.7145 22 17.3333 22C17.9522 22 18.5457 21.7542 18.9832 21.3166C19.4208 20.879 19.6667 20.2855 19.6667 19.6667C19.6667 19.0478 19.4208 18.4543 18.9832 18.0168C18.5457 17.5792 17.9522 17.3333 17.3333 17.3333ZM8 19.6667C8 20.2855 7.75417 20.879 7.31658 21.3166C6.879 21.7542 6.2855 22 5.66667 22C5.04783 22 4.45434 21.7542 4.01675 21.3166C3.57917 20.879 3.33333 20.2855 3.33333 19.6667C3.33333 19.0478 3.57917 18.4543 4.01675 18.0168C4.45434 17.5792 5.04783 17.3333 5.66667 17.3333C6.2855 17.3333 6.879 17.5792 7.31658 18.0168C7.75417 18.4543 8 19.0478 8 19.6667V19.6667Z" stroke="white" stroke-width="2" stroke-linecap="round" stroke-linejoin="round"/>
<circle cx="16.6" cy="19.6" r="4.6" fill="#F2C730"/>
</svg>
