<svg width="29" height="28" viewBox="0 0 29 28" fill="none" xmlns="http://www.w3.org/2000/svg">
<path d="M3.58008 3.5H5.91341L6.38008 5.83333L3.58008 3.5ZM8.24674 15.1667H19.9134L24.5801 5.83333H6.38008L8.24674 15.1667ZM8.24674 15.1667L6.38008 5.83333L8.24674 15.1667ZM8.24674 15.1667L5.57158 17.8418C4.83658 18.5768 5.35691 19.8333 6.39641 19.8333H19.9134L8.24674 15.1667ZM19.9134 19.8333C19.2946 19.8333 18.7011 20.0792 18.2635 20.5168C17.8259 20.9543 17.5801 21.5478 17.5801 22.1667C17.5801 22.7855 17.8259 23.379 18.2635 23.8166C18.7011 24.2542 19.2946 24.5 19.9134 24.5C20.5322 24.5 21.1257 24.2542 21.5633 23.8166C22.0009 23.379 22.2467 22.7855 22.2467 22.1667C22.2467 21.5478 22.0009 20.9543 21.5633 20.5168C21.1257 20.0792 20.5322 19.8333 19.9134 19.8333ZM10.5801 22.1667C10.5801 22.7855 10.3342 23.379 9.89666 23.8166C9.45908 24.2542 8.86558 24.5 8.24674 24.5C7.62791 24.5 7.03441 24.2542 6.59683 23.8166C6.15924 23.379 5.91341 22.7855 5.91341 22.1667C5.91341 21.5478 6.15924 20.9543 6.59683 20.5168C7.03441 20.0792 7.62791 19.8333 8.24674 19.8333C8.86558 19.8333 9.45908 20.0792 9.89666 20.5168C10.3342 20.9543 10.5801 21.5478 10.5801 22.1667V22.1667Z" stroke="white" stroke-width="2" stroke-linecap="round" stroke-linejoin="round"/>
</svg>
