<svg width="25" height="25" viewBox="0 0 25 25" fill="none" xmlns="http://www.w3.org/2000/svg">
<path d="M10.1002 0.679081C10.643 0.240525 11.3301 0 12.04 0C12.7499 0 13.437 0.240525 13.9798 0.679081L23.0098 7.97856C23.688 8.52743 24.08 9.33407 24.08 10.1843V22.7558C24.08 23.351 23.8333 23.9218 23.3943 24.3427C22.9553 24.7636 22.3598 25 21.7389 25H17.0567C16.4358 25 15.8403 24.7636 15.4012 24.3427C14.9622 23.9218 14.7156 23.351 14.7156 22.7558V15.7025C14.7156 15.6175 14.6803 15.5359 14.6176 15.4758C14.5549 15.4157 14.4698 15.3819 14.3811 15.3819H9.69889C9.61019 15.3819 9.52512 15.4157 9.4624 15.4758C9.39968 15.5359 9.36444 15.6175 9.36444 15.7025V22.7558C9.36444 23.351 9.11779 23.9218 8.67875 24.3427C8.23971 24.7636 7.64423 25 7.02333 25H2.34111C2.03367 25 1.72924 24.9419 1.44521 24.8292C1.16117 24.7164 0.903088 24.5511 0.685696 24.3427C0.468303 24.1343 0.295858 23.8869 0.178207 23.6146C0.0605547 23.3423 0 23.0505 0 22.7558V10.1843C0 9.33407 0.391969 8.52743 1.07022 7.97856L10.1002 0.679081ZM12.6861 2.15001C12.5053 2.00405 12.2764 1.92401 12.04 1.92401C11.8036 1.92401 11.5747 2.00405 11.3939 2.15001L2.36385 9.4482C2.25211 9.53838 2.16225 9.65086 2.10055 9.77778C2.03886 9.9047 2.00682 10.043 2.00667 10.183V22.7545C2.00667 22.9315 2.1565 23.0751 2.34111 23.0751H7.02333C7.11203 23.0751 7.1971 23.0413 7.25982 22.9812C7.32254 22.9211 7.35778 22.8395 7.35778 22.7545V15.7012C7.35778 14.4611 8.4066 13.457 9.69889 13.457H14.3811C15.6734 13.457 16.7222 14.4611 16.7222 15.7012V22.7545C16.7222 22.9315 16.8721 23.0751 17.0567 23.0751H21.7389C21.8276 23.0751 21.9127 23.0413 21.9754 22.9812C22.0381 22.9211 22.0733 22.8395 22.0733 22.7545V10.1843C22.0732 10.0443 22.0411 9.90598 21.9794 9.77906C21.9178 9.65214 21.8279 9.53966 21.7161 9.44949L12.6861 2.15001Z" fill="white"/>
</svg>
