<svg width="25" height="25" viewBox="0 0 25 25" fill="none" xmlns="http://www.w3.org/2000/svg">
<path d="M12.5 23.8056C12.9375 23.7955 13.3572 23.631 13.6851 23.3413C14.013 23.0515 14.2279 22.6551 14.2917 22.2222H10.6389C10.7045 22.6669 10.9294 23.0726 11.2717 23.3638C11.6141 23.6551 12.0506 23.8121 12.5 23.8056Z" fill="white"/>
<path d="M22.5764 19.3264C21.9067 18.7294 21.3204 18.045 20.8333 17.2917C20.3015 16.2518 19.9828 15.1161 19.8958 13.9514V10.5208C19.893 10.1041 19.8558 9.68838 19.7847 9.27778C19.2381 9.16852 18.7128 8.97153 18.2292 8.69445C18.4135 9.28809 18.5072 9.90617 18.5069 10.5278V13.9583C18.592 15.3792 18.9829 16.7649 19.6528 18.0208C20.1322 18.7806 20.7011 19.48 21.3472 20.1042H3.56249C4.2086 19.48 4.77749 18.7806 5.25693 18.0208C5.9268 16.7649 6.31765 15.3792 6.40276 13.9583V10.5208C6.39911 9.71715 6.55402 8.92063 6.85863 8.17689C7.16323 7.43315 7.61155 6.75681 8.17791 6.18657C8.74428 5.61634 9.41756 5.16343 10.1592 4.85376C10.9008 4.5441 11.6963 4.38377 12.5 4.38195C13.6762 4.38289 14.826 4.73073 15.8055 5.38195C15.6976 4.98541 15.6369 4.57747 15.625 4.16667V3.72917C14.8999 3.37247 14.1209 3.13784 13.3194 3.03472V2.15972C13.3194 1.91385 13.2218 1.67804 13.0479 1.50418C12.874 1.33032 12.6382 1.23264 12.3923 1.23264C12.1465 1.23264 11.9107 1.33032 11.7368 1.50418C11.5629 1.67804 11.4653 1.91385 11.4653 2.15972V3.06945C9.67062 3.32261 8.02816 4.21649 6.84111 5.58607C5.65406 6.95564 5.00258 8.70843 5.00693 10.5208V13.9514C4.91996 15.1161 4.60122 16.2518 4.06943 17.2917C3.59088 18.0433 3.01401 18.7276 2.35415 19.3264C2.28008 19.3915 2.22071 19.4716 2.18 19.5614C2.13929 19.6512 2.11817 19.7486 2.11804 19.8472V20.7917C2.11804 20.9758 2.19121 21.1525 2.32144 21.2827C2.45167 21.4129 2.62831 21.4861 2.81249 21.4861H22.118C22.3022 21.4861 22.4789 21.4129 22.6091 21.2827C22.7393 21.1525 22.8125 20.9758 22.8125 20.7917V19.8472C22.8124 19.7486 22.7912 19.6512 22.7505 19.5614C22.7098 19.4716 22.6504 19.3915 22.5764 19.3264V19.3264Z" fill="white"/>
<path d="M20.3333 7.63889C21.9748 7.63889 23.3056 6.08432 23.3056 4.16667C23.3056 2.24901 21.9748 0.694445 20.3333 0.694445C18.6918 0.694445 17.3611 2.24901 17.3611 4.16667C17.3611 6.08432 18.6918 7.63889 20.3333 7.63889Z" fill="#EBB940"/>
</svg>
