<svg width="21" height="21" viewBox="0 0 21 21" fill="none" xmlns="http://www.w3.org/2000/svg">
<path d="M20.5764 18.3264C19.9067 17.7294 19.3204 17.045 18.8333 16.2917C18.3015 15.2518 17.9828 14.1161 17.8958 12.9514V9.52084C17.893 9.10414 17.8558 8.68838 17.7847 8.27778C17.2381 8.16852 16.7128 7.97153 16.2292 7.69445C16.4135 8.28809 16.5072 8.90617 16.5069 9.52778V12.9583C16.592 14.3792 16.9829 15.7649 17.6528 17.0208C18.1322 17.7806 18.7011 18.48 19.3472 19.1042H1.56249C2.2086 18.48 2.77749 17.7806 3.25693 17.0208C3.9268 15.7649 4.31765 14.3792 4.40276 12.9583V9.52084C4.39911 8.71715 4.55402 7.92063 4.85863 7.17689C5.16323 6.43315 5.61155 5.75681 6.17791 5.18657C6.74428 4.61634 7.41756 4.16343 8.1592 3.85376C8.90085 3.5441 9.69629 3.38376 10.5 3.38195C11.6762 3.38289 12.826 3.73073 13.8055 4.38195C13.6976 3.98541 13.6369 3.57747 13.625 3.16667V2.72917C12.8999 2.37247 12.1209 2.13784 11.3194 2.03472V1.15972C11.3194 0.913847 11.2218 0.67804 11.0479 0.504178C10.874 0.330316 10.6382 0.232641 10.3923 0.232641C10.1465 0.232641 9.91066 0.330316 9.7368 0.504178C9.56294 0.67804 9.46526 0.913847 9.46526 1.15972V2.06945C7.67062 2.32261 6.02816 3.21649 4.84111 4.58607C3.65406 5.95564 3.00258 7.70843 3.00693 9.52084V12.9514C2.91996 14.1161 2.60122 15.2518 2.06943 16.2917C1.59088 17.0433 1.01401 17.7276 0.354153 18.3264C0.280078 18.3915 0.22071 18.4716 0.179999 18.5614C0.139287 18.6512 0.118167 18.7486 0.118042 18.8472V19.7917C0.118042 19.9758 0.191206 20.1525 0.32144 20.2827C0.451674 20.413 0.628308 20.4861 0.812487 20.4861H20.118C20.3022 20.4861 20.4789 20.413 20.6091 20.2827C20.7393 20.1525 20.8125 19.9758 20.8125 19.7917V18.8472C20.8124 18.7486 20.7912 18.6512 20.7505 18.5614C20.7098 18.4716 20.6504 18.3915 20.5764 18.3264Z" fill="white"/>
</svg>
