<svg width="29" height="28" viewBox="0 0 29 28" fill="none" xmlns="http://www.w3.org/2000/svg">
<path d="M14.0801 12.8333C12.8424 12.8333 11.6554 12.3417 10.7802 11.4665C9.90506 10.5913 9.41339 9.40434 9.41339 8.16667C9.41339 6.92899 9.90506 5.742 10.7802 4.86683C11.6554 3.99167 12.8424 3.5 14.0801 3.5C15.3177 3.5 16.5047 3.99167 17.3799 4.86683C18.2551 5.742 18.7467 6.92899 18.7467 8.16667C18.7467 9.40434 18.2551 10.5913 17.3799 11.4665C16.5047 12.3417 15.3177 12.8333 14.0801 12.8333Z" stroke="#ECEBEB" stroke-width="2" stroke-linecap="round"/>
<path d="M4.74673 24.5V23.3333C4.74673 21.4768 5.48423 19.6963 6.79699 18.3836C8.10974 17.0708 9.89022 16.3333 11.7467 16.3333H16.4134C18.2699 16.3333 20.0504 17.0708 21.3631 18.3836C22.6759 19.6963 23.4134 21.4768 23.4134 23.3333V24.5" stroke="#ECEBEB" stroke-width="2" stroke-linecap="round"/>
</svg>
